<svg id="hopup" xmlns="http://www.w3.org/2000/svg" viewBox="0 0 152.67 171.32"><defs><style>.cls-1{fill:#d9d01f;}.cls-2{fill:#c7bf1a;}.cls-3,.cls-5{fill:#d9bc89;}.cls-4{fill:#8f8064;}.cls-5{stroke:#8f8064;stroke-miterlimit:10;stroke-width:2px;}.cls-6{fill:#3565ae;}.cls-7{fill:#1e4785;}.cls-8{fill:#fff;}.cls-9{fill:#d9431c;}.cls-10{fill:#a73317;}.cls-11{fill:#9c9b9b;}.cls-12{fill:#1e1e1c;}</style></defs><title>el_penguino-hop</title><g id="foot"><path class="cls-1" d="M47.27,179.92c-0.77,2.06.32,3.24,2.43,2.62l3.11-.91a4.33,4.33,0,0,1,5.2,2.64l1.1,3c0.75,2.07,2.35,2.26,3.55.42L64.44,185a4.33,4.33,0,0,1,5.67-1.37l2.82,1.6c1.91,1.09,3.25.19,3-2l-1-8.12a20.19,20.19,0,0,1-.1-5.45l0.09-.79a11.72,11.72,0,0,0-23.27-2.72L51.5,167a20.19,20.19,0,0,1-1.35,5.28Z" transform="translate(-4.17 -18.68)"/><path class="cls-2" d="M60.87,190l-0.27,0c-0.62-.07-1.76-0.47-2.43-2.33l-1.1-3a3.35,3.35,0,0,0-4-2L50,183.5c-1.9.55-2.89-.13-3.31-0.59s-1-1.5-.34-3.35l2.88-7.66A20,20,0,0,0,50.5,167v-0.08l0.1-.86a12.72,12.72,0,1,1,25.26,3l-0.12.93a19.91,19.91,0,0,0,.13,5.06l1,8.12c0.25,2-.58,2.83-1.1,3.18s-1.64.78-3.36-.19l-2.82-1.6a3.35,3.35,0,0,0-4.34,1l-1.78,2.71A3.17,3.17,0,0,1,60.87,190ZM54,180.47a5.35,5.35,0,0,1,5,3.46l1.1,3a1.43,1.43,0,0,0,.78,1,1.43,1.43,0,0,0,1-.81l1.78-2.71a5.33,5.33,0,0,1,7-1.69l2.82,1.6a1.44,1.44,0,0,0,1.26.27,1.43,1.43,0,0,0,.23-1.26l-1-8.12a21.55,21.55,0,0,1-.09-5.76l0.08-.72a10.72,10.72,0,1,0-21.29-2.49L52.5,167a21.61,21.61,0,0,1-1.42,5.58l-2.88,7.66a1.43,1.43,0,0,0-.07,1.28,1.43,1.43,0,0,0,1.28,0l3.11-.91A5.08,5.08,0,0,1,54,180.47Z" transform="translate(-4.17 -18.68)"/></g><g id="foot-2" data-name="foot"><path class="cls-1" d="M113.73,179.92c0.77,2.06-.32,3.24-2.43,2.62l-3.11-.91a4.33,4.33,0,0,0-5.2,2.64l-1.1,3c-0.75,2.07-2.35,2.26-3.55.42L96.56,185a4.33,4.33,0,0,0-5.67-1.37l-2.82,1.6c-1.91,1.09-3.25.19-3-2l1-8.12a20.19,20.19,0,0,0,.1-5.45l-0.09-.79a11.72,11.72,0,0,1,23.27-2.72L109.5,167a20.19,20.19,0,0,0,1.35,5.28Z" transform="translate(-4.17 -18.68)"/><path class="cls-2" d="M100.13,190a3.17,3.17,0,0,1-2.64-1.72l-1.78-2.71a3.36,3.36,0,0,0-4.34-1l-2.82,1.6c-1.72,1-2.84.54-3.36,0.19s-1.35-1.22-1.1-3.18l1-8.12a19.91,19.91,0,0,0,.13-5.06l0-.15L85.15,169a12.72,12.72,0,1,1,25.26-3l0.1,0.86V167a20,20,0,0,0,1.29,4.89l2.88,7.66c0.69,1.85.09,2.89-.34,3.35s-1.42,1.14-3.31.59l-3.11-.91a3.35,3.35,0,0,0-4,2l-1.1,3c-0.67,1.86-1.81,2.25-2.43,2.33Zm-7.19-7.88a5.32,5.32,0,0,1,4.45,2.36l1.78,2.71a0.89,0.89,0,1,0,1.78-.21l1.1-3a5.34,5.34,0,0,1,6.42-3.26l3.11,0.91a0.89,0.89,0,1,0,1.22-1.31l-2.88-7.66A21.6,21.6,0,0,1,108.5,167l-0.08-.72a10.72,10.72,0,0,0-21.29,2.49l0.08,0.72a21.56,21.56,0,0,1-.09,5.76l-1,8.12a0.9,0.9,0,1,0,1.49,1l2.82-1.6A5.15,5.15,0,0,1,92.94,182.12Z" transform="translate(-4.17 -18.68)"/></g><path class="cls-3" d="M103.77,57s-0.35-23.42-16.85-34.33c0,0-4.25-3-7.3-3s-7.3,3-7.3,3C55.82,33.63,55.47,57,55.47,57" transform="translate(-4.17 -18.68)"/><path class="cls-4" d="M102.78,57.06c0-.23-0.54-23-16.41-33.51-1.14-.81-4.52-2.87-6.75-2.87S74,22.74,72.9,23.53C57,34,56.47,56.84,56.47,57.06l-2,0c0-1,.55-24.08,17.3-35.15,0.16-.11,4.52-3.2,7.85-3.2s7.7,3.09,7.88,3.22C104.23,33,104.76,56.06,104.78,57Z" transform="translate(-4.17 -18.68)"/><path class="cls-3" d="M80.5,87.74c-27.64,0-50.88-2.16-57.64-5.1,0,0-11.49-3.35-17.49-17.85,0,0,13.61-12,75.14-12s75.14,12,75.14,12c-6,14.5-17.49,17.85-17.49,17.85-6.76,2.94-30,5.1-57.64,5.1" transform="translate(-4.17 -18.68)"/><path class="cls-4" d="M80.5,88.74c-27.07,0-50.89-2.12-58-5.16-1-.32-12.13-4-18.08-18.4l-0.27-.66L4.7,64C5.27,63.55,19.3,51.8,80.5,51.8S155.73,63.55,156.3,64l0.54,0.47-0.27.66c-5.95,14.37-17,18.08-18.08,18.4C131.39,86.62,107.57,88.74,80.5,88.74ZM6.59,65.14C12.4,78.38,23,81.65,23.14,81.69l0.12,0c6.8,3,30.34,5,57.24,5s50.44-2.06,57.24-5l0.12,0c0.11,0,10.74-3.3,16.54-16.54-3.15-2.08-20.23-11.34-73.9-11.34C26.59,53.8,9.71,63,6.59,65.14Z" transform="translate(-4.17 -18.68)"/><ellipse class="cls-4" cx="76.33" cy="63.2" rx="35.97" ry="4.25"/><path class="cls-4" d="M80.5,87.13a229.66,229.66,0,0,1-25.55-1.25c-10-1.19-11.42-2.62-11.42-4s1.38-2.81,11.42-4A229.66,229.66,0,0,1,80.5,76.63a229.67,229.67,0,0,1,25.55,1.25c10,1.19,11.42,2.62,11.42,4s-1.38,2.81-11.42,4A229.67,229.67,0,0,1,80.5,87.13ZM45.73,81.88c2.18,1.4,15,3.25,34.77,3.25s32.59-1.85,34.77-3.25c-2.18-1.4-15-3.25-34.77-3.25S47.91,80.48,45.73,81.88Z" transform="translate(-4.17 -18.68)"/><path class="cls-5" d="M139.44,82.08" transform="translate(-4.17 -18.68)"/><path class="cls-6" d="M80.5,171.63c-24.37,0-52,0-52-31.17,0-30.24,16.13-72.83,52-72.83s52,42.59,52,72.83C132.5,171.63,104.87,171.63,80.5,171.63Z" transform="translate(-4.17 -18.68)"/><path class="cls-7" d="M80.5,69.63c35.42,0,50,43.22,50,70.83s-22.39,29.17-50,29.17-50-1.55-50-29.17,14.58-70.83,50-70.83m0-4c-37.25,0-54,43.76-54,74.83,0,14.38,5.59,23.74,17.08,28.62,9.89,4.2,23.11,4.55,36.92,4.55s27-.35,36.92-4.55c11.49-4.88,17.08-14.24,17.08-28.62,0-31.07-16.75-74.83-54-74.83h0Z" transform="translate(-4.17 -18.68)"/><path class="cls-8" d="M111,152.63s0.47-14.75-5-36.5c0,0-1.39-3.61,2.69-9.63A14.41,14.41,0,0,0,111,98.38a15.25,15.25,0,0,0-27-9.74S82.09,91,80.5,91,77,88.64,77,88.64a15.25,15.25,0,0,0-27,9.74,14.41,14.41,0,0,0,2.34,8.12c4.08,6,2.69,9.63,2.69,9.63-5.5,21.75-5,36.5-5,36.5,0,7.89,3,12.88,7.9,16a178.13,178.13,0,0,0,22.6,1,178.13,178.13,0,0,0,22.6-1C108,165.51,111,160.52,111,152.63Z" transform="translate(-4.17 -18.68)"/><path class="cls-1" d="M80.5,119.13a3.63,3.63,0,0,1-1.47-.24c-13.12-4.81-11.87-9.75-11.87-9.75,0-1,1.38-1.5,1.38-1.5,4.33-2.33,12-2.33,12-2.33s7.64,0,12,2.33c0,0,1.38.5,1.38,1.5,0,0,1.25,4.94-11.87,9.75A3.63,3.63,0,0,1,80.5,119.13Z" transform="translate(-4.17 -18.68)"/><path class="cls-2" d="M80.5,120.13a4.74,4.74,0,0,1-1.85-.32C65.81,115.09,66,110,66.16,109a2.92,2.92,0,0,1,2-2.29c4.51-2.4,12.07-2.42,12.39-2.42s7.88,0,12.39,2.42a2.92,2.92,0,0,1,2,2.29c0.18,1,.35,6.08-12.49,10.79A4.74,4.74,0,0,1,80.5,120.13Zm-1-2.14a3.07,3.07,0,0,0,1,.14,3,3,0,0,0,1.05-.15c11.82-4.34,11.33-8.56,11.32-8.6l0-.25a1.28,1.28,0,0,0-.72-0.56L92,108.51c-4.06-2.19-11.42-2.21-11.5-2.21s-7.44,0-11.5,2.21l-0.13.06a1.27,1.27,0,0,0-.72.56l0,0.25s-0.6,4.22,11.25,8.57l0.09,0h0Z" transform="translate(-4.17 -18.68)"/><path class="cls-9" d="M80.5,116.47a2.76,2.76,0,0,1-1.12-.19c-10-3.66-9-7.41-9-7.41a1.55,1.55,0,0,1,1-1.14C74.7,106,80.5,106,80.5,106s5.8,0,9.09,1.77a1.55,1.55,0,0,1,1,1.14s0.95,3.75-9,7.41A2.76,2.76,0,0,1,80.5,116.47Z" transform="translate(-4.17 -18.68)"/><path class="cls-10" d="M80.5,117a3.2,3.2,0,0,1-1.33-.24c-9.62-3.52-9.4-7.33-9.3-7.91a2,2,0,0,1,1.37-1.56c3.3-1.78,9-1.8,9.26-1.8s6,0,9.33,1.83a1.91,1.91,0,0,1,1.31,1.53c0.1,0.58.32,4.38-9.35,7.93A3.22,3.22,0,0,1,80.5,117Zm0-10.5c-0.06,0-5.72,0-8.86,1.71a1.17,1.17,0,0,0-.78.7l0,0.12s-0.59,3.41,8.71,6.81a2.38,2.38,0,0,0,.94.16,2.41,2.41,0,0,0,.9-0.14c9.33-3.42,8.75-6.81,8.75-6.84v-0.11a1.1,1.1,0,0,0-.71-0.67C86.22,106.48,80.56,106.46,80.5,106.46Z" transform="translate(-4.17 -18.68)"/><path class="cls-1" d="M80.5,101.14a3.63,3.63,0,0,1,1.47.24c13.13,4.81,11.88,7.75,11.88,7.75,0,1-1.37,1.5-1.37,1.5C88,110,80.5,110,80.5,110s-7.53.08-12,.67c0,0-1.37-.5-1.37-1.5,0,0-1.25-2.94,11.88-7.75a3.63,3.63,0,0,1,1.47-.24" transform="translate(-4.17 -18.68)"/><path class="cls-2" d="M92.58,111.66l-0.24,0C88,111.06,80.56,111,80.49,111s-7.5.09-11.83,0.66l-0.24,0-0.23-.08c-0.2-.07-1.93-0.75-2-2.3a2.29,2.29,0,0,1,.19-1.37c1-2.31,5.14-4.82,12.3-7.45a5.52,5.52,0,0,1,3.69,0c7.16,2.63,11.3,5.13,12.3,7.45a2.28,2.28,0,0,1,.19,1.37c-0.1,1.55-1.83,2.23-2,2.3Zm-24.45-2.79,0,0.06v0.2a1,1,0,0,0,.52.47c4.47-.55,11.51-0.64,11.81-0.64s7.36,0.09,11.83.64a1,1,0,0,0,.53-0.47l0-.26c-0.07-.35-0.93-2.76-11.25-6.55l-0.09,0h0a3.07,3.07,0,0,0-1-.14,3,3,0,0,0-1.05.15C69.06,106.1,68.2,108.52,68.13,108.87Z" transform="translate(-4.17 -18.68)"/><path class="cls-6" d="M127.18,111.21s23.11,21.86,17.37,26.26c-4.86,3.73-25.11-12.35-25.11-12.35" transform="translate(-4.17 -18.68)"/><path class="cls-7" d="M142.66,140c-6.89,0-19-8.93-24.46-13.28a2,2,0,0,1,2.49-3.13c10.89,8.65,20.93,13.64,22.65,12.33a0.41,0.41,0,0,0,.13-0.37c0.21-4-10.2-15.8-17.66-22.85a2,2,0,1,1,2.75-2.91c3.22,3,19.29,18.63,18.91,26a4.34,4.34,0,0,1-1.69,3.34A5,5,0,0,1,142.66,140Z" transform="translate(-4.17 -18.68)"/><path class="cls-6" d="M33.82,111.21s-23.11,21.86-17.37,26.26c4.86,3.73,25.11-12.35,25.11-12.35" transform="translate(-4.17 -18.68)"/><path class="cls-7" d="M18.34,140a5,5,0,0,1-3.11-.92,4.34,4.34,0,0,1-1.69-3.34c-0.38-7.34,15.68-22.92,18.91-26a2,2,0,0,1,2.75,2.91c-7.46,7.06-17.87,18.81-17.66,22.85a0.4,0.4,0,0,0,.13.37c1.71,1.31,11.76-3.68,22.65-12.33a2,2,0,1,1,2.49,3.13C37.32,131,25.23,140,18.34,140Z" transform="translate(-4.17 -18.68)"/><path class="cls-11" d="M81.5,156.94a1,1,0,0,1-2,0c0-.55.45-2,1-2S81.5,156.39,81.5,156.94Z" transform="translate(-4.17 -18.68)"/><path class="cls-3" d="M116.47,59.3V81.88c0-2.35-16.1-4.25-36-4.25s-36,1.9-36,4.25V59.3h71.94Z" transform="translate(-4.17 -18.68)"/><path class="cls-4" d="M115.53,82.1c-1.09-1.42-14.19-3.47-35-3.47s-33.94,2.05-35,3.47a0.4,0.4,0,0,0,.06-0.22h-2c0-1.38,1.38-2.81,11.42-4A229.66,229.66,0,0,1,80.5,76.63a229.67,229.67,0,0,1,25.55,1.25c10,1.19,11.42,2.62,11.42,4h-2A0.39,0.39,0,0,0,115.53,82.1Z" transform="translate(-4.17 -18.68)"/><path class="cls-5" d="M80.5,87.74" transform="translate(-4.17 -18.68)"/><polygon class="cls-9" points="141.3 52.95 141.3 52.95 141.3 52.95 141.3 52.95"/><polygon class="cls-9" points="117.18 48.59 117.18 48.59 117.18 48.59 117.18 48.59"/><path class="cls-9" d="M10.48,73.52c-0.12-.15-5-8.5-5.11-8.72A35.44,35.44,0,0,0,10.48,73.52Z" transform="translate(-4.17 -18.68)"/><path class="cls-9" d="M150.52,73.52a35.44,35.44,0,0,0,5.11-8.72C155.54,65,150.64,73.37,150.52,73.52Z" transform="translate(-4.17 -18.68)"/><path class="cls-9" d="M132,68.69l-0.73-12.1-10,10.67C125.41,67.71,129,68.19,132,68.69Z" transform="translate(-4.17 -18.68)"/><path class="cls-9" d="M145.47,71.63L148.09,61,140,70.21C142.2,70.71,144,71.19,145.47,71.63Z" transform="translate(-4.17 -18.68)"/><path class="cls-9" d="M90.44,65.47c6.31,0.12,12,.35,17.15.66l-6.19-12.82Z" transform="translate(-4.17 -18.68)"/><path class="cls-9" d="M145.47,71.63c1.46,0.44,2.56.83,3.35,1.14l3.73-9.84Z" transform="translate(-4.17 -18.68)"/><path class="cls-9" d="M140,70.21l1.16-11.41L132,68.69C135.13,69.19,137.76,69.71,140,70.21Z" transform="translate(-4.17 -18.68)"/><path class="cls-9" d="M15.53,71.63L8.45,62.92l3.73,9.84C13,72.46,14.08,72.07,15.53,71.63Z" transform="translate(-4.17 -18.68)"/><path class="cls-9" d="M29,68.69l-9.1-9.89L21,70.21C23.24,69.71,25.87,69.19,29,68.69Z" transform="translate(-4.17 -18.68)"/><path class="cls-9" d="M21,70.21L12.91,61l2.62,10.63C17,71.19,18.8,70.71,21,70.21Z" transform="translate(-4.17 -18.68)"/><path class="cls-9" d="M148.82,72.77a15.1,15.1,0,0,1,1.7.75c0.12-.15,5-8.5,5.11-8.72Z" transform="translate(-4.17 -18.68)"/><path class="cls-9" d="M107.58,66.13c5.13,0.31,9.71.7,13.76,1.14l-3.15-12.6Z" transform="translate(-4.17 -18.68)"/><path class="cls-9" d="M5.36,64.8c0.09,0.22,5,8.57,5.11,8.72a15.1,15.1,0,0,1,1.7-.75Z" transform="translate(-4.17 -18.68)"/><path class="cls-9" d="M70.56,65.47l-11-12.16L53.42,66.13C58.55,65.82,64.25,65.59,70.56,65.47Z" transform="translate(-4.17 -18.68)"/><path class="cls-9" d="M80.5,65.38q5.21,0,9.94.09L80.5,52.8,70.56,65.47Q75.3,65.38,80.5,65.38Z" transform="translate(-4.17 -18.68)"/><path class="cls-9" d="M53.42,66.13L42.8,54.67l-3.15,12.6C43.71,66.83,48.28,66.44,53.42,66.13Z" transform="translate(-4.17 -18.68)"/><path class="cls-9" d="M39.65,67.27l-10-10.67L29,68.69C32,68.19,35.59,67.71,39.65,67.27Z" transform="translate(-4.17 -18.68)"/><path class="cls-4" d="M151.3,74.15l-1.56-1.25a34.32,34.32,0,0,0,4.66-7.75c-3.15-2.08-20.23-11.34-73.9-11.34-31.42,0-50,3.19-60,5.87C12,61.94,8,64.22,6.59,65.14a34.32,34.32,0,0,0,4.66,7.75L9.7,74.15a36.57,36.57,0,0,1-5.26-9l-0.27-.66L4.7,64C5.27,63.55,19.3,51.8,80.5,51.8S155.73,63.55,156.3,64l0.54,0.47-0.27.66A36.58,36.58,0,0,1,151.3,74.15Z" transform="translate(-4.17 -18.68)"/><path class="cls-10" d="M149.31,74a1,1,0,0,1-.38-0.08c-4.28-1.76-21.85-7.51-68.43-7.51s-64.11,5.74-68.4,7.49A1,1,0,1,1,11.34,72c4.37-1.79,22.28-7.64,69.16-7.64s64.83,5.86,69.2,7.66A1,1,0,0,1,149.31,74Z" transform="translate(-4.17 -18.68)"/><path class="cls-12" d="M100.72,98.38a1.5,1.5,0,0,1-1.5-1.5,4.39,4.39,0,1,0-8.77,0,1.5,1.5,0,0,1-3,0,7.39,7.39,0,1,1,14.77,0A1.5,1.5,0,0,1,100.72,98.38Z" transform="translate(-4.17 -18.68)"/><path class="cls-12" d="M72.05,98.38a1.5,1.5,0,0,1-1.5-1.5,4.39,4.39,0,1,0-8.77,0,1.5,1.5,0,0,1-3,0,7.39,7.39,0,1,1,14.77,0A1.5,1.5,0,0,1,72.05,98.38Z" transform="translate(-4.17 -18.68)"/></svg>