<svg id="stand" xmlns="http://www.w3.org/2000/svg" viewBox="0 0 152.67 165.98"><defs><style>.cls-1{fill:#d9d01f;}.cls-2{fill:#c7bf1a;}.cls-3,.cls-5{fill:#d9bc89;}.cls-4{fill:#8f8064;}.cls-5{stroke:#8f8064;stroke-miterlimit:10;stroke-width:2px;}.cls-6{fill:#3565ae;}.cls-7{fill:#1e4785;}.cls-8{fill:#fff;}.cls-9{fill:#1e1e1c;}.cls-10{fill:#9c9b9b;}.cls-11{fill:#d9431c;}.cls-12{fill:#a73317;}</style></defs><title>el_penguino-stand</title><g id="foot"><path class="cls-1" d="M39.1,178.31c-1,1.95-.08,3.25,2.09,2.9l3.2-.52a4.33,4.33,0,0,1,4.84,3.26l0.72,3.16c0.49,2.14,2.05,2.53,3.48.85l2.09-2.47a4.33,4.33,0,0,1,5.79-.66l2.6,1.93c1.76,1.31,3.2.59,3.19-1.61l0-8.18a20.19,20.19,0,0,1,.57-5.42l0.19-.77a11.72,11.72,0,0,0-22.76-5.55l-0.19.77a20.19,20.19,0,0,1-2,5.07Z" transform="translate(-4.17 -24.02)"/><path class="cls-2" d="M51.65,190a2.3,2.3,0,0,1-.55-0.07c-0.61-.15-1.69-0.68-2.13-2.61l-0.72-3.16a3.35,3.35,0,0,0-3.7-2.49l-3.2.52c-1.95.31-2.85-.48-3.21-1s-0.84-1.61.07-3.36L42,170.6a19.91,19.91,0,0,0,1.88-4.7l0-.15L44.1,165a12.72,12.72,0,0,1,24.71,6l-0.23.91a20,20,0,0,0-.49,5l0,8.18c0,2-.92,2.74-1.48,3s-1.73.58-3.31-.6l-2.6-1.93a3.35,3.35,0,0,0-4.43.51l-2.1,2.47A3.34,3.34,0,0,1,51.65,190ZM45,179.64a5.35,5.35,0,0,1,5.16,4.09l0.72,3.16a1.43,1.43,0,0,0,.65,1.11,1.43,1.43,0,0,0,1.09-.69l2.1-2.47a5.33,5.33,0,0,1,7.15-.82l2.6,1.93a1.44,1.44,0,0,0,1.21.42,1.43,1.43,0,0,0,.38-1.23l0-8.18a21.63,21.63,0,0,1,.61-5.73l0.17-.7A10.72,10.72,0,1,0,46,165.46l-0.17.7a21.55,21.55,0,0,1-2.09,5.36L40,178.77l-0.89-.46L40,178.77a1.43,1.43,0,0,0-.23,1.27,1.42,1.42,0,0,0,1.27.18l3.2-.52A5.05,5.05,0,0,1,45,179.64Z" transform="translate(-4.17 -24.02)"/></g><g id="foot-2" data-name="foot"><path class="cls-1" d="M121.9,178.31c1,1.95.08,3.25-2.09,2.9l-3.2-.52a4.33,4.33,0,0,0-4.84,3.26l-0.72,3.16c-0.49,2.14-2.05,2.53-3.48.85l-2.09-2.47a4.33,4.33,0,0,0-5.79-.66l-2.6,1.93c-1.76,1.31-3.2.59-3.19-1.61l0-8.18a20.19,20.19,0,0,0-.57-5.42l-0.19-.77a11.72,11.72,0,0,1,22.76-5.55l0.19,0.77a20.19,20.19,0,0,0,2,5.07Z" transform="translate(-4.17 -24.02)"/><path class="cls-2" d="M109.35,190a3.34,3.34,0,0,1-2.54-1.4l-2.09-2.47a3.35,3.35,0,0,0-4.43-.51l-2.6,1.93c-1.58,1.18-2.75.88-3.31,0.6s-1.49-1-1.48-3l0-8.18a20,20,0,0,0-.49-5l0-.14L92.2,171a12.72,12.72,0,1,1,24.71-6l0.21,0.92a19.9,19.9,0,0,0,1.88,4.7l3.79,7.25c0.92,1.75.44,2.86,0.08,3.36s-1.26,1.3-3.22,1l-3.2-.52a3.34,3.34,0,0,0-3.7,2.49L112,187.33c-0.44,1.92-1.52,2.46-2.12,2.61A2.31,2.31,0,0,1,109.35,190Zm-7.14-7a5.29,5.29,0,0,1,4,1.83l2.09,2.47a0.9,0.9,0,1,0,1.74-.42l0.72-3.16a5.33,5.33,0,0,1,6-4l3.2,0.52a0.9,0.9,0,1,0,1-1.45l-3.79-7.25a21.55,21.55,0,0,1-2.09-5.36l-0.17-.7a10.71,10.71,0,1,0-20.82,5.08l0.17,0.7a21.66,21.66,0,0,1,.61,5.73l0,8.18a0.9,0.9,0,1,0,1.6.81l2.6-1.93A5.2,5.2,0,0,1,102.21,183Z" transform="translate(-4.17 -24.02)"/></g><path class="cls-3" d="M103.77,62.38S103.43,39,86.92,28.05c0,0-4.25-3-7.3-3s-7.3,3-7.3,3C55.82,39,55.47,62.38,55.47,62.38" transform="translate(-4.17 -24.02)"/><path class="cls-4" d="M56.47,62.4l-2,0c0-1,.55-24.08,17.3-35.15,0.16-.11,4.52-3.2,7.85-3.2s7.7,3.09,7.88,3.22c16.72,11.06,17.26,34.15,17.27,35.13l-2,0c0-.23-0.54-23-16.41-33.51C85.23,28.07,81.85,26,79.62,26S74,28.07,72.9,28.86C57,39.37,56.47,62.17,56.47,62.4Z" transform="translate(-4.17 -24.02)"/><path class="cls-3" d="M80.5,93.08c-27.64,0-50.88-2.16-57.64-5.1,0,0-11.49-3.35-17.49-17.85,0,0,13.61-12,75.14-12s75.14,12,75.14,12c-6,14.5-17.49,17.85-17.49,17.85-6.76,2.94-30,5.1-57.64,5.1" transform="translate(-4.17 -24.02)"/><path class="cls-4" d="M80.5,94.08c-27.07,0-50.89-2.12-58-5.16-1-.32-12.13-4-18.08-18.4l-0.27-.66,0.54-.47c0.57-.5,14.59-12.25,75.8-12.25s75.23,11.75,75.8,12.25l0.54,0.47-0.27.66c-5.95,14.37-17,18.08-18.08,18.4C131.39,92,107.57,94.08,80.5,94.08ZM6.59,70.47C12.4,83.71,23,87,23.14,87l0.12,0c6.8,3,30.34,5,57.24,5s50.44-2.06,57.24-5l0.12,0c0.11,0,10.74-3.3,16.54-16.54-3.15-2.08-20.23-11.34-73.9-11.34C26.59,59.13,9.71,68.38,6.59,70.47Z" transform="translate(-4.17 -24.02)"/><ellipse class="cls-4" cx="76.33" cy="63.2" rx="35.97" ry="4.25"/><path class="cls-4" d="M80.5,92.47a229.66,229.66,0,0,1-25.55-1.25c-10-1.19-11.42-2.62-11.42-4s1.38-2.81,11.42-4A229.66,229.66,0,0,1,80.5,82a229.67,229.67,0,0,1,25.55,1.25c10,1.19,11.42,2.62,11.42,4s-1.38,2.81-11.42,4A229.67,229.67,0,0,1,80.5,92.47ZM45.73,87.22c2.18,1.4,15,3.25,34.77,3.25s32.59-1.85,34.77-3.25c-2.18-1.4-15-3.25-34.77-3.25S47.91,85.82,45.73,87.22Z" transform="translate(-4.17 -24.02)"/><path class="cls-5" d="M139.44,87.42" transform="translate(-4.17 -24.02)"/><path class="cls-6" d="M80.5,177c-24.37,0-52,0-52-31.17C28.5,115.56,44.63,73,80.5,73s52,42.59,52,72.83C132.5,177,104.87,177,80.5,177Z" transform="translate(-4.17 -24.02)"/><path class="cls-7" d="M80.5,75c35.42,0,50,43.22,50,70.83S108.11,175,80.5,175s-50-1.55-50-29.17S45.08,75,80.5,75m0-4c-37.25,0-54,43.76-54,74.83,0,14.38,5.59,23.74,17.08,28.62,9.89,4.2,23.11,4.55,36.92,4.55s27-.35,36.92-4.55c11.49-4.88,17.08-14.24,17.08-28.62,0-31.07-16.75-74.83-54-74.83h0Z" transform="translate(-4.17 -24.02)"/><path class="cls-8" d="M111,158s0.47-14.75-5-36.5c0,0-1.39-3.61,2.69-9.63a14.41,14.41,0,0,0,2.34-8.12A15.25,15.25,0,0,0,84,94s-1.92,2.37-3.52,2.37S77,94,77,94a15.25,15.25,0,0,0-27,9.74,14.41,14.41,0,0,0,2.34,8.12c4.08,6,2.69,9.63,2.69,9.63-5.5,21.75-5,36.5-5,36.5,0,7.89,3,12.88,7.9,16a178.13,178.13,0,0,0,22.6,1,178.13,178.13,0,0,0,22.6-1C108,170.85,111,165.85,111,158Z" transform="translate(-4.17 -24.02)"/><circle class="cls-9" cx="62" cy="77.95" r="3"/><circle class="cls-9" cx="90.67" cy="77.95" r="3"/><path class="cls-1" d="M80.5,122.46a3.63,3.63,0,0,1-1.47-.24c-13.12-4.81-11.87-7.75-11.87-7.75,0-1,1.38-1.5,1.38-1.5,4.33-2.33,12-2.33,12-2.33s7.64,0,12,2.33c0,0,1.38.5,1.38,1.5,0,0,1.25,2.94-11.87,7.75A3.63,3.63,0,0,1,80.5,122.46Z" transform="translate(-4.17 -24.02)"/><path class="cls-2" d="M80.5,123.46a4.73,4.73,0,0,1-1.85-.32c-7.16-2.63-11.3-5.13-12.3-7.45a2.29,2.29,0,0,1-.19-1.37,2.94,2.94,0,0,1,2-2.27c4.51-2.4,12.07-2.42,12.39-2.42s7.88,0,12.39,2.42a2.93,2.93,0,0,1,2,2.27,2.28,2.28,0,0,1-.19,1.37c-1,2.31-5.14,4.82-12.3,7.45A4.73,4.73,0,0,1,80.5,123.46Zm-1-2.14a3.07,3.07,0,0,0,1,.14,3,3,0,0,0,1.05-.15c10.39-3.81,11.25-6.23,11.32-6.58l0-.06v-0.2a1.28,1.28,0,0,0-.72-0.56L92,113.85c-4.06-2.19-11.42-2.21-11.5-2.21s-7.44,0-11.5,2.21l-0.13.06a1.27,1.27,0,0,0-.72.56l0,0.26c0.07,0.35.93,2.76,11.25,6.55l0.09,0h0Z" transform="translate(-4.17 -24.02)"/><path class="cls-6" d="M127.89,116.55s13.16,29,6.18,30.88c-5.91,1.62-16.45-21.77-16.45-21.77" transform="translate(-4.17 -24.02)"/><path class="cls-7" d="M133.54,149.49c-6.63,0-14.54-15.9-17.74-23a2,2,0,0,1,3.65-1.64c5.06,11.22,11.92,21.28,14.09,20.66a0.4,0.4,0,0,0,.26-0.29c1.72-3.67-3.49-18.48-7.73-27.83a2,2,0,0,1,3.64-1.65c1.83,4,10.83,24.53,7.71,31.18a4.35,4.35,0,0,1-2.82,2.45A4,4,0,0,1,133.54,149.49Z" transform="translate(-4.17 -24.02)"/><path class="cls-6" d="M33.11,116.55s-13.16,29-6.18,30.88c5.91,1.62,16.45-21.77,16.45-21.77" transform="translate(-4.17 -24.02)"/><path class="cls-7" d="M27.46,149.49a4,4,0,0,1-1.06-.14,4.35,4.35,0,0,1-2.82-2.45c-3.12-6.65,5.88-27.14,7.71-31.18a2,2,0,1,1,3.64,1.65c-4.25,9.35-9.45,24.16-7.73,27.83a0.4,0.4,0,0,0,.26.29c2.2,0.63,9-9.44,14.09-20.66a2,2,0,0,1,3.65,1.64C42,133.59,34.09,149.49,27.46,149.49Z" transform="translate(-4.17 -24.02)"/><path class="cls-10" d="M81.5,162.28a1,1,0,0,1-2,0c0-.55.45-2,1-2S81.5,161.72,81.5,162.28Z" transform="translate(-4.17 -24.02)"/><path class="cls-3" d="M116.47,64.63V87.22c0-2.35-16.1-4.25-36-4.25s-36,1.9-36,4.25V64.63h71.94Z" transform="translate(-4.17 -24.02)"/><path class="cls-4" d="M115.53,87.44C114.44,86,101.34,84,80.5,84s-33.94,2.05-35,3.47a0.4,0.4,0,0,0,.06-0.22h-2c0-1.38,1.38-2.81,11.42-4A229.66,229.66,0,0,1,80.5,82a229.67,229.67,0,0,1,25.55,1.25c10,1.19,11.42,2.62,11.42,4h-2A0.39,0.39,0,0,0,115.53,87.44Z" transform="translate(-4.17 -24.02)"/><path class="cls-5" d="M80.5,93.08" transform="translate(-4.17 -24.02)"/><polygon class="cls-11" points="141.3 52.95 141.3 52.95 141.3 52.95 141.3 52.95"/><polygon class="cls-11" points="117.18 48.59 117.18 48.59 117.18 48.59 117.18 48.59"/><path class="cls-11" d="M10.48,78.85c-0.12-.15-5-8.5-5.11-8.72A35.44,35.44,0,0,0,10.48,78.85Z" transform="translate(-4.17 -24.02)"/><path class="cls-11" d="M150.52,78.85a35.44,35.44,0,0,0,5.11-8.72C155.54,70.35,150.64,78.71,150.52,78.85Z" transform="translate(-4.17 -24.02)"/><path class="cls-11" d="M132,74l-0.73-12.1-10,10.67C125.41,73,129,73.53,132,74Z" transform="translate(-4.17 -24.02)"/><path class="cls-11" d="M145.47,77l2.62-10.63L140,75.54C142.2,76,144,76.53,145.47,77Z" transform="translate(-4.17 -24.02)"/><path class="cls-11" d="M90.44,70.81c6.31,0.12,12,.35,17.15.66l-6.19-12.82Z" transform="translate(-4.17 -24.02)"/><path class="cls-11" d="M145.47,77c1.46,0.44,2.56.83,3.35,1.14l3.73-9.84Z" transform="translate(-4.17 -24.02)"/><path class="cls-11" d="M140,75.54l1.16-11.41L132,74C135.13,74.53,137.76,75,140,75.54Z" transform="translate(-4.17 -24.02)"/><path class="cls-11" d="M15.53,77L8.45,68.26l3.73,9.84C13,77.79,14.08,77.4,15.53,77Z" transform="translate(-4.17 -24.02)"/><path class="cls-11" d="M29,74l-9.1-9.89L21,75.54C23.24,75,25.87,74.53,29,74Z" transform="translate(-4.17 -24.02)"/><path class="cls-11" d="M21,75.54l-8.11-9.21L15.53,77C17,76.53,18.8,76,21,75.54Z" transform="translate(-4.17 -24.02)"/><path class="cls-11" d="M148.82,78.1a15.1,15.1,0,0,1,1.7.75c0.12-.15,5-8.5,5.11-8.72Z" transform="translate(-4.17 -24.02)"/><path class="cls-11" d="M107.58,71.47c5.13,0.31,9.71.7,13.76,1.14L118.2,60Z" transform="translate(-4.17 -24.02)"/><path class="cls-11" d="M5.36,70.13c0.09,0.22,5,8.57,5.11,8.72a15.1,15.1,0,0,1,1.7-.75Z" transform="translate(-4.17 -24.02)"/><path class="cls-11" d="M70.56,70.81l-11-12.16L53.42,71.47C58.55,71.16,64.25,70.93,70.56,70.81Z" transform="translate(-4.17 -24.02)"/><path class="cls-11" d="M80.5,70.72q5.21,0,9.94.09L80.5,58.13,70.56,70.81Q75.3,70.72,80.5,70.72Z" transform="translate(-4.17 -24.02)"/><path class="cls-11" d="M53.42,71.47L42.8,60,39.65,72.6C43.71,72.17,48.28,71.78,53.42,71.47Z" transform="translate(-4.17 -24.02)"/><path class="cls-11" d="M39.65,72.6l-10-10.67L29,74C32,73.53,35.59,73,39.65,72.6Z" transform="translate(-4.17 -24.02)"/><path class="cls-4" d="M151.3,79.48l-1.56-1.25a34.32,34.32,0,0,0,4.66-7.75c-3.15-2.08-20.23-11.34-73.9-11.34-31.42,0-50,3.19-60,5.87C12,67.27,8,69.56,6.59,70.47a34.32,34.32,0,0,0,4.66,7.75L9.7,79.48a36.57,36.57,0,0,1-5.26-9l-0.27-.66,0.54-.47c0.57-.5,14.59-12.25,75.8-12.25s75.23,11.75,75.8,12.25l0.54,0.47-0.27.66A36.58,36.58,0,0,1,151.3,79.48Z" transform="translate(-4.17 -24.02)"/><path class="cls-12" d="M149.31,79.3a1,1,0,0,1-.38-0.08c-4.28-1.76-21.85-7.51-68.43-7.51s-64.11,5.74-68.4,7.49a1,1,0,0,1-.76-1.85c4.37-1.79,22.28-7.64,69.16-7.64s64.83,5.86,69.2,7.66A1,1,0,0,1,149.31,79.3Z" transform="translate(-4.17 -24.02)"/></svg>