<svg id="hopdown" xmlns="http://www.w3.org/2000/svg" viewBox="0 0 157.97 185.32"><defs><style>.cls-1{fill:#d9d01f;}.cls-2{fill:#c7bf1a;}.cls-3,.cls-5{fill:#d9bc89;}.cls-4{fill:#8f8064;}.cls-5{stroke:#8f8064;stroke-miterlimit:10;stroke-width:2px;}.cls-6{fill:#3565ae;}.cls-7{fill:#1e4785;}.cls-8{fill:#fff;}.cls-9{fill:#1e1e1c;}.cls-10{fill:#9c9b9b;}.cls-11{fill:#d9431c;}.cls-12{fill:#a73317;}</style></defs><title>el_penguino-land</title><g id="foot"><path class="cls-1" d="M30.84,177.15c-1.2,1.84-.39,3.23,1.81,3.09l3.23-.21a4.33,4.33,0,0,1,4.5,3.71l0.42,3.21c0.28,2.18,1.8,2.71,3.38,1.18l2.32-2.26a4.33,4.33,0,0,1,5.83-.11l2.4,2.17c1.63,1.48,3.13.89,3.33-1.3l0.75-8.15a20.19,20.19,0,0,1,1.09-5.34l0.26-.75A11.72,11.72,0,0,0,38,164.69l-0.26.75a20.19,20.19,0,0,1-2.47,4.86Z" transform="translate(-1.51 -4.68)"/><path class="cls-2" d="M42.45,190a2.36,2.36,0,0,1-.78-0.13c-0.59-.21-1.61-0.84-1.87-2.8l-0.42-3.21A3.33,3.33,0,0,0,35.94,181l-3.23.21c-2,.13-2.79-0.75-3.11-1.29s-0.68-1.69.4-3.34h0l4.47-6.85a20,20,0,0,0,2.32-4.5l0-.15,0.26-.75a12.72,12.72,0,1,1,24,8.36l-0.32.88a20,20,0,0,0-1,5l-0.75,8.15c-0.18,2-1.18,2.64-1.76,2.87s-1.77.41-3.24-.92l-2.4-2.17a3.35,3.35,0,0,0-4.46.08l-2.32,2.26A3.49,3.49,0,0,1,42.45,190Zm-6.31-11a5.34,5.34,0,0,1,5.23,4.59l0.42,3.21a1.43,1.43,0,0,0,.54,1.17,1.42,1.42,0,0,0,1.15-.58l2.32-2.26A5.34,5.34,0,0,1,53,185l2.4,2.17a1.43,1.43,0,0,0,1.17.54,1.43,1.43,0,0,0,.5-1.18l0.75-8.15A21.6,21.6,0,0,1,59,172.75l0.24-.69A10.72,10.72,0,0,0,39,165l-0.24.68a21.59,21.59,0,0,1-2.6,5.14l-4.47,6.85a1.43,1.43,0,0,0-.35,1.24,1.41,1.41,0,0,0,1.25.31l3.23-.21h0.33Z" transform="translate(-1.51 -4.68)"/></g><g id="foot-2" data-name="foot"><path class="cls-1" d="M130.16,177.15c1.2,1.84.39,3.23-1.81,3.09l-3.23-.21a4.33,4.33,0,0,0-4.5,3.71l-0.42,3.21c-0.28,2.18-1.8,2.71-3.38,1.18l-2.32-2.26a4.33,4.33,0,0,0-5.83-.11l-2.4,2.17c-1.63,1.48-3.13.89-3.33-1.3l-0.75-8.15a20.19,20.19,0,0,0-1.09-5.34l-0.26-.75A11.72,11.72,0,0,1,123,164.69l0.26,0.75a20.19,20.19,0,0,0,2.47,4.86Z" transform="translate(-1.51 -4.68)"/><path class="cls-2" d="M118.55,190a3.49,3.49,0,0,1-2.42-1.16l-2.32-2.26a3.35,3.35,0,0,0-4.46-.08l-2.4,2.17c-1.46,1.33-2.65,1.14-3.24.92s-1.58-.9-1.76-2.86l-0.75-8.15a20,20,0,0,0-1-5l-0.06-.14-0.26-.75a12.72,12.72,0,0,1,24-8.36l0.3,0.89a19.9,19.9,0,0,0,2.32,4.5L131,176.6c1.08,1.65.71,2.8,0.4,3.34a3,3,0,0,1-3.11,1.29l-3.23-.21a3.34,3.34,0,0,0-3.45,2.83l-0.42,3.21c-0.25,2-1.28,2.59-1.87,2.8A2.36,2.36,0,0,1,118.55,190Zm-7-6.32a5.26,5.26,0,0,1,3.67,1.46l2.32,2.26a0.89,0.89,0,1,0,1.69-.59l0.42-3.21a5.35,5.35,0,0,1,5.56-4.58l3.23,0.21a1.41,1.41,0,0,0,1.25-.31,1.43,1.43,0,0,0-.35-1.24h0l-4.47-6.85a21.57,21.57,0,0,1-2.6-5.14L122,165a10.72,10.72,0,0,0-20.24,7l0.24,0.69a21.67,21.67,0,0,1,1.16,5.64l0.75,8.15a0.89,0.89,0,1,0,1.67.65L108,185A5.24,5.24,0,0,1,111.53,183.68Z" transform="translate(-1.51 -4.68)"/></g><path class="cls-3" d="M103.78,43S103.43,19.63,86.92,8.72c0,0-4.25-3-7.3-3s-7.3,3-7.3,3C55.82,19.63,55.47,43,55.47,43" transform="translate(-1.51 -4.68)"/><path class="cls-4" d="M56.47,43.06l-2,0c0-1,.55-24.08,17.3-35.15,0.16-.11,4.52-3.2,7.85-3.2s7.7,3.09,7.88,3.22C104.23,19,104.76,42.06,104.78,43l-2,0c0-.23-0.54-23-16.41-33.51-1.14-.81-4.52-2.87-6.75-2.87S74,8.74,72.9,9.53C57,20,56.47,42.83,56.47,43.06Z" transform="translate(-1.51 -4.68)"/><path class="cls-3" d="M80.5,73.74c-27.64,0-50.88-2.16-57.64-5.1,0,0-11.49-3.35-17.49-17.85,0,0,13.61-12,75.14-12s75.14,12,75.14,12c-6,14.5-17.49,17.85-17.49,17.85-6.76,2.94-30,5.1-57.64,5.1" transform="translate(-1.51 -4.68)"/><path class="cls-4" d="M80.5,74.74c-27.07,0-50.89-2.12-58-5.16-1-.32-12.13-4-18.08-18.4l-0.27-.66L4.7,50C5.27,49.55,19.3,37.8,80.5,37.8S155.73,49.55,156.3,50l0.54,0.47-0.27.66c-5.95,14.37-17,18.08-18.08,18.4C131.39,72.62,107.57,74.74,80.5,74.74ZM6.59,51.13C12.4,64.38,23,67.65,23.14,67.69l0.12,0c6.8,3,30.34,5,57.24,5s50.44-2.06,57.24-5l0.12,0c0.11,0,10.74-3.3,16.54-16.54-3.15-2.08-20.23-11.34-73.9-11.34C26.59,39.8,9.71,49,6.59,51.13Z" transform="translate(-1.51 -4.68)"/><ellipse class="cls-4" cx="78.99" cy="63.2" rx="35.97" ry="4.25"/><path class="cls-4" d="M80.5,73.13a229.66,229.66,0,0,1-25.55-1.25c-10-1.19-11.42-2.62-11.42-4s1.38-2.81,11.42-4A229.66,229.66,0,0,1,80.5,62.63a229.67,229.67,0,0,1,25.55,1.25c10,1.19,11.42,2.62,11.42,4s-1.38,2.81-11.42,4A229.67,229.67,0,0,1,80.5,73.13ZM45.73,67.88c2.18,1.4,15,3.25,34.77,3.25s32.59-1.85,34.77-3.25c-2.18-1.4-15-3.25-34.77-3.25S47.91,66.48,45.73,67.88Z" transform="translate(-1.51 -4.68)"/><path class="cls-5" d="M139.44,68.08" transform="translate(-1.51 -4.68)"/><path class="cls-6" d="M80.5,175.63c-24.37,0-52,0-52-31.17,0-30.24,16.13-72.83,52-72.83s52,42.59,52,72.83C132.5,175.63,104.87,175.63,80.5,175.63Z" transform="translate(-1.51 -4.68)"/><path class="cls-7" d="M80.5,73.63c35.42,0,50,43.22,50,70.83s-22.39,29.17-50,29.17-50-1.55-50-29.17,14.58-70.83,50-70.83m0-4c-37.25,0-54,43.76-54,74.83,0,14.38,5.59,23.74,17.08,28.62,9.89,4.2,23.11,4.55,36.92,4.55s27-.35,36.92-4.55c11.49-4.88,17.08-14.24,17.08-28.62,0-31.07-16.75-74.83-54-74.83h0Z" transform="translate(-1.51 -4.68)"/><path class="cls-8" d="M111,156.63s0.47-14.75-5-36.5c0,0-1.39-3.61,2.69-9.63a14.41,14.41,0,0,0,2.34-8.12,15.25,15.25,0,0,0-27-9.74S82.09,95,80.5,95,77,92.64,77,92.64a15.25,15.25,0,0,0-27,9.74,14.41,14.41,0,0,0,2.34,8.12c4.08,6,2.69,9.63,2.69,9.63-5.5,21.75-5,36.5-5,36.5,0,7.89,3,12.88,7.9,16a178.13,178.13,0,0,0,22.6,1,178.13,178.13,0,0,0,22.6-1C108,169.51,111,164.52,111,156.63Z" transform="translate(-1.51 -4.68)"/><circle class="cls-9" cx="64.65" cy="99.95" r="3"/><circle class="cls-9" cx="93.32" cy="99.95" r="3"/><path class="cls-1" d="M80.5,121.13a3.63,3.63,0,0,1-1.47-.24c-13.12-4.81-11.87-7.75-11.87-7.75,0-1,1.38-1.5,1.38-1.5,4.33-2.33,12-2.33,12-2.33s7.64,0,12,2.33c0,0,1.38.5,1.38,1.5,0,0,1.25,2.94-11.87,7.75A3.63,3.63,0,0,1,80.5,121.13Z" transform="translate(-1.51 -4.68)"/><path class="cls-2" d="M80.5,122.13a4.74,4.74,0,0,1-1.85-.32c-7.16-2.63-11.3-5.13-12.3-7.45a2.29,2.29,0,0,1-.19-1.37,2.94,2.94,0,0,1,2-2.27c4.51-2.4,12.07-2.42,12.39-2.42s7.88,0,12.39,2.42a2.94,2.94,0,0,1,2,2.27,2.28,2.28,0,0,1-.19,1.37c-1,2.31-5.14,4.82-12.3,7.45A4.73,4.73,0,0,1,80.5,122.13Zm-1-2.14a3.08,3.08,0,0,0,1,.14,3,3,0,0,0,1.05-.15c10.39-3.81,11.25-6.23,11.32-6.58l0-.06v-0.2a1.28,1.28,0,0,0-.72-0.56L92,112.51c-4.06-2.19-11.42-2.21-11.5-2.21s-7.44,0-11.5,2.21l-0.13.06a1.27,1.27,0,0,0-.72.56l0,0.26c0.07,0.35.93,2.76,11.25,6.55l0.09,0h0Z" transform="translate(-1.51 -4.68)"/><path class="cls-6" d="M126,115.21s30.9-7.54,31.49-.33c0.5,6.11-32.68,21.25-32.68,21.25" transform="translate(-1.51 -4.68)"/><path class="cls-7" d="M124.8,138.13a2,2,0,0,1-.83-3.82c16.78-7.66,31.21-16.5,31.51-19.31a0.44,0.44,0,0,0-.24-0.27c-3.29-2.37-18.81,0-28.78,2.43a2,2,0,0,1-.95-3.89c4.31-1.05,26.11-6.08,32.07-1.78a4.34,4.34,0,0,1,1.88,3.23c0.21,2.53-1.68,6.26-17.18,14.83-8.2,4.53-16.58,8.37-16.66,8.4A2,2,0,0,1,124.8,138.13Z" transform="translate(-1.51 -4.68)"/><path class="cls-6" d="M35,115.21s-30.9-7.54-31.49-.33C3,121,36.2,136.13,36.2,136.13" transform="translate(-1.51 -4.68)"/><path class="cls-7" d="M36.2,138.13a2,2,0,0,1-.83-0.18c-0.08,0-8.46-3.87-16.66-8.4C3.2,121,1.32,117.24,1.53,114.72a4.34,4.34,0,0,1,1.88-3.23c6-4.3,27.76.73,32.07,1.78a2,2,0,0,1-.95,3.89c-10-2.43-25.5-4.8-28.78-2.43a0.4,0.4,0,0,0-.24.31c0.3,2.77,14.74,11.61,31.51,19.27A2,2,0,0,1,36.2,138.13Z" transform="translate(-1.51 -4.68)"/><path class="cls-10" d="M81.5,160.94a1,1,0,0,1-2,0c0-.55.45-2,1-2S81.5,160.39,81.5,160.94Z" transform="translate(-1.51 -4.68)"/><path class="cls-3" d="M116.47,45.3V67.88c0-2.35-16.1-4.25-36-4.25s-36,1.9-36,4.25V45.3h71.94Z" transform="translate(-1.51 -4.68)"/><path class="cls-4" d="M115.53,68.1c-1.09-1.42-14.19-3.47-35-3.47s-33.94,2.05-35,3.47a0.4,0.4,0,0,0,.06-0.22h-2c0-1.38,1.38-2.81,11.42-4A229.66,229.66,0,0,1,80.5,62.63a229.67,229.67,0,0,1,25.55,1.25c10,1.19,11.42,2.62,11.42,4h-2A0.39,0.39,0,0,0,115.53,68.1Z" transform="translate(-1.51 -4.68)"/><path class="cls-5" d="M80.5,73.74" transform="translate(-1.51 -4.68)"/><polygon class="cls-11" points="143.95 52.95 143.95 52.95 143.95 52.95 143.95 52.95"/><polygon class="cls-11" points="119.83 48.59 119.83 48.59 119.83 48.59 119.83 48.59"/><path class="cls-11" d="M10.48,59.52c-0.12-.15-5-8.5-5.11-8.72A35.44,35.44,0,0,0,10.48,59.52Z" transform="translate(-1.51 -4.68)"/><path class="cls-11" d="M150.52,59.52a35.44,35.44,0,0,0,5.11-8.72C155.55,51,150.64,59.37,150.52,59.52Z" transform="translate(-1.51 -4.68)"/><path class="cls-11" d="M132,54.69l-0.73-12.1-10,10.67C125.41,53.71,129,54.19,132,54.69Z" transform="translate(-1.51 -4.68)"/><path class="cls-11" d="M145.47,57.63L148.09,47,140,56.21C142.2,56.71,144,57.19,145.47,57.63Z" transform="translate(-1.51 -4.68)"/><path class="cls-11" d="M90.44,51.47c6.31,0.12,12,.35,17.15.66l-6.19-12.82Z" transform="translate(-1.51 -4.68)"/><path class="cls-11" d="M145.47,57.63c1.46,0.44,2.56.83,3.35,1.14l3.73-9.84Z" transform="translate(-1.51 -4.68)"/><path class="cls-11" d="M140,56.21l1.16-11.41L132,54.69C135.13,55.19,137.76,55.71,140,56.21Z" transform="translate(-1.51 -4.68)"/><path class="cls-11" d="M15.53,57.63L8.45,48.92l3.73,9.84C13,58.46,14.08,58.07,15.53,57.63Z" transform="translate(-1.51 -4.68)"/><path class="cls-11" d="M29,54.69l-9.1-9.89L21,56.21C23.24,55.71,25.87,55.19,29,54.69Z" transform="translate(-1.51 -4.68)"/><path class="cls-11" d="M21,56.21L12.91,47l2.62,10.63C17,57.19,18.8,56.71,21,56.21Z" transform="translate(-1.51 -4.68)"/><path class="cls-11" d="M148.82,58.77a15.1,15.1,0,0,1,1.7.75c0.12-.15,5-8.5,5.11-8.72Z" transform="translate(-1.51 -4.68)"/><path class="cls-11" d="M107.58,52.13c5.13,0.31,9.71.7,13.76,1.14l-3.15-12.6Z" transform="translate(-1.51 -4.68)"/><path class="cls-11" d="M5.36,50.8c0.09,0.22,5,8.57,5.11,8.72a15.1,15.1,0,0,1,1.7-.75Z" transform="translate(-1.51 -4.68)"/><path class="cls-11" d="M70.56,51.47l-11-12.16L53.42,52.13C58.55,51.82,64.25,51.59,70.56,51.47Z" transform="translate(-1.51 -4.68)"/><path class="cls-11" d="M80.5,51.38q5.21,0,9.94.09L80.5,38.8,70.56,51.47Q75.3,51.38,80.5,51.38Z" transform="translate(-1.51 -4.68)"/><path class="cls-11" d="M53.42,52.13L42.8,40.67l-3.15,12.6C43.71,52.83,48.28,52.44,53.42,52.13Z" transform="translate(-1.51 -4.68)"/><path class="cls-11" d="M39.65,53.27l-10-10.67L29,54.69C32,54.19,35.59,53.71,39.65,53.27Z" transform="translate(-1.51 -4.68)"/><path class="cls-4" d="M151.3,60.14l-1.56-1.25a34.32,34.32,0,0,0,4.66-7.75c-3.15-2.08-20.23-11.34-73.9-11.34-31.42,0-50,3.19-60,5.87C12,47.94,8,50.22,6.59,51.14a34.32,34.32,0,0,0,4.66,7.75L9.7,60.14a36.57,36.57,0,0,1-5.26-9l-0.27-.66L4.7,50C5.27,49.55,19.3,37.8,80.5,37.8S155.73,49.55,156.3,50l0.54,0.47-0.27.66A36.58,36.58,0,0,1,151.3,60.14Z" transform="translate(-1.51 -4.68)"/><path class="cls-12" d="M149.31,60a1,1,0,0,1-.38-0.08c-4.27-1.76-21.84-7.51-68.43-7.51s-64.11,5.74-68.4,7.49A1,1,0,0,1,11.34,58c4.37-1.79,22.28-7.64,69.16-7.64s64.83,5.86,69.2,7.66A1,1,0,0,1,149.31,60Z" transform="translate(-1.51 -4.68)"/></svg>