<?xml version="1.0" encoding="utf-8"?>
<!-- Generator: Adobe Illustrator 19.2.1, SVG Export Plug-In . SVG Version: 6.00 Build 0)  -->
<svg version="1.1" xmlns="http://www.w3.org/2000/svg" xmlns:xlink="http://www.w3.org/1999/xlink" x="0px" y="0px"
	 viewBox="0 0 1024 768" style="enable-background:new 0 0 1024 768;" xml:space="preserve">
<style type="text/css">
	.st0{fill:url(#SVGID_1_);}
	.st1{fill:#86C3E0;}
	.st2{fill:#98D5F2;}
	.st3{fill:#E1F2FD;}
	.st4{fill:#8FD3F5;}
	.st5{fill:url(#SVGID_2_);}
	.st6{fill:#399AC9;}
	.st7{fill:#3EA8DB;}
	.st8{fill:#67BAE0;}
	.st9{fill:#54B5E3;}
	.st10{fill:#F4FAFF;}
	.st11{fill:#7AB1CD;}
	.st12{fill:#FFFFFF;}
</style>
<g id="Layer_12">
	<linearGradient id="SVGID_1_" gradientUnits="userSpaceOnUse" x1="512" y1="320" x2="512" y2="-2.298748e-08">
		<stop  offset="0" style="stop-color:#CFE9FF"/>
		<stop  offset="1" style="stop-color:#6BBBFF"/>
	</linearGradient>
	<rect class="st0" width="1024" height="320"/>
</g>
<g id="Layer_14">
	<polygon class="st1" points="68,380 84,303 103,295 103,385 	"/>
	<polyline class="st2" points="103,295 135,315.5 153.5,385 103,385 	"/>
	<polyline class="st1" points="135,315.5 160,304.5 168.5,379.5 153.5,385 	"/>
	<polyline class="st2" points="160,304.5 186,285 212,381.5 168.5,379.5 	"/>
	<polyline class="st1" points="186,285 231.5,274.5 224,377.5 212,381.5 	"/>
	<polyline class="st2" points="231.5,274.5 247,264 257,282 266.5,381.5 224,377.5 	"/>
	<polyline class="st1" points="257,282 277,302 279,385 266.5,381.5 	"/>
	<polyline class="st2" points="84,303 68,299.5 58,353 68,380 	"/>
	<polyline class="st1" points="68,299.5 58,319 47,353.5 58,353 	"/>
	<polygon class="st1" points="720.9,360 746.9,283 765.9,275 755.9,365 	"/>
	<polyline class="st2" points="765.9,275 797.9,295.5 806.4,365 755.9,365 	"/>
	<polyline class="st1" points="797.9,295.5 832.9,264.5 821.4,359.5 806.4,365 	"/>
	<polyline class="st2" points="832.9,264.5 868.9,265 864.9,361.5 821.4,359.5 	"/>
	<polyline class="st1" points="868.9,265 894.4,274.5 876.9,357.5 864.9,361.5 	"/>
	<polyline class="st2" points="894.4,274.5 909.9,264 919.9,262 919.4,361.5 876.9,357.5 	"/>
	<polyline class="st1" points="919.9,262 939.9,292 931.9,365 919.4,361.5 	"/>
	<polyline class="st2" points="746.9,283 730.9,279.5 710.9,333 720.9,360 	"/>
	<polyline class="st1" points="730.9,279.5 700.9,299 699.9,333.5 710.9,333 	"/>
	<polyline class="st2" points="939.9,292 969.5,296 980.5,348.5 929.6,364.4 	"/>
	<polyline class="st1" points="969.5,296 985,292 990,342 980.5,348.5 	"/>
	<polyline class="st2" points="985,292 1000.3,304.5 997.7,333.5 990,342 	"/>
</g>
<g id="Layer_15">
	<polygon class="st3" points="312.9,364.8 352.8,246.7 382,214.5 366.6,372.5 	"/>
	<polyline class="st4" points="382,214.5 431,245.9 464.1,372.5 366.6,372.5 	"/>
	<polyline class="st3" points="431,245.9 474.8,158.3 487.1,364.1 464.1,372.5 	"/>
	<polyline class="st4" points="474.8,158.3 539.9,149.1 533.8,367.1 487.1,364.1 	"/>
	<polyline class="st3" points="539.9,149.1 589,193.7 552.2,361 533.8,367.1 	"/>
	<polyline class="st4" points="589,193.7 612.8,187.6 628.1,194.5 617.4,367.1 552.2,361 	"/>
	<polyline class="st3" points="628.1,194.5 648.8,240.5 636.5,372.5 617.4,367.1 	"/>
	<polyline class="st4" points="352.8,246.7 318.3,241.4 297.6,323.4 312.9,364.8 	"/>
	<polyline class="st3" points="318.3,241.4 282.3,271.3 270.7,324.2 297.6,323.4 	"/>
	<polyline class="st4" points="648.8,240.5 704.2,266.7 711.1,347.2 633.1,371.5 	"/>
	<polyline class="st3" points="704.2,266.7 728,290.5 745.7,337.2 711.1,347.2 	"/>
</g>
<g id="Layer_6">
	<linearGradient id="SVGID_2_" gradientUnits="userSpaceOnUse" x1="512" y1="768" x2="512" y2="320">
		<stop  offset="0" style="stop-color:#35A8E0"/>
		<stop  offset="1" style="stop-color:#1D70B7"/>
	</linearGradient>
	<rect y="320" class="st5" width="1024" height="448"/>
</g>
<g id="ice_raft_copy">
	<g>
		<polygon class="st6" points="754.4,644 932.7,650.6 932.7,600.7 754.4,596.1 		"/>
	</g>
	<g id="Layer_13_copy">
	</g>
	<g id="Layer_1_copy">
		<g id="New_Symbol_copy">
		</g>
	</g>
	<g id="Layer_4_copy">
		<g>
			<polygon class="st7" points="944.2,549.2 932.7,600.6 932.7,650.6 944.2,599.2 			"/>
		</g>
		<g>
			<polygon class="st8" points="676.3,704.9 920.9,652.9 920.9,702.9 676.3,754.9 			"/>
		</g>
		<g>
			<polygon class="st9" points="676.3,704.9 595.4,707.7 595.4,757.7 676.3,754.9 			"/>
		</g>
		<g>
			<polygon class="st8" points="595.4,707.7 587.1,688.1 587.1,738.1 595.4,757.7 			"/>
		</g>
		<g>
			<polygon class="st9" points="516.5,686.5 587.1,688.1 587.1,738.1 516.5,736.5 			"/>
		</g>
		<path class="st10" d="M523.5,554.2"/>
		<g>
			<polygon class="st7" points="516.5,686.5 491.3,711.2 491.3,761.2 516.5,736.5 			"/>
		</g>
		<g>
			<polygon class="st8" points="409.8,764 491.3,761.2 491.3,711.2 409.8,714 			"/>
		</g>
		<g>
			<polygon class="st9" points="149,670.5 409.8,714 409.8,764 149,720.5 			"/>
		</g>
		<g>
			<polygon class="st8" points="79.8,570 149,670.5 149,720.5 79.8,620 			"/>
		</g>
		<g>
			<polygon class="st7" points="920.9,652.9 929.6,614.2 929.6,664.2 920.9,702.9 			"/>
		</g>
	</g>
</g>
<g id="ice_raft">
	<g id="Layer_13">
		<g>
			<polygon class="st4" points="523.5,453.8 371.3,434.5 371.3,484.5 523.5,503.8 			"/>
		</g>
		<g>
			<polygon class="st11" points="754.4,591.6 932.7,600.2 932.7,550.3 754.4,543.6 			"/>
		</g>
	</g>
	<g id="Layer_1">
		<g id="New_Symbol">
			<g>
				<polygon class="st12" points="790.7,402.9 532.2,376 391.4,391.7 371.3,434.5 523.5,453.8 351.9,447.4 297.1,402.2 234.4,409.2 
					79.8,519.6 149,620.1 409.8,663.7 491.3,660.9 516.5,636.1 587.1,637.7 595.4,657.4 676.3,654.6 920.9,602.5 929.6,563.9 
					754.4,543.6 932.7,550.3 944.2,498.9 				"/>
			</g>
		</g>
	</g>
	<g id="Layer_4">
		<g>
			<polygon class="st4" points="944.2,498.9 932.7,550.3 932.7,600.3 944.2,548.9 			"/>
		</g>
		<g>
			<polygon class="st4" points="920.9,602.5 929.6,563.9 929.6,613.9 920.9,652.5 			"/>
		</g>
		<g>
			<polygon class="st10" points="676.3,654.6 920.9,602.5 920.9,652.5 676.3,704.6 			"/>
		</g>
		<g>
			<polygon class="st3" points="676.3,654.6 595.4,657.4 595.4,707.4 676.3,704.6 			"/>
		</g>
		<g>
			<polygon class="st10" points="595.4,657.4 587.1,637.7 587.1,687.7 595.4,707.4 			"/>
		</g>
		<g>
			<polygon class="st3" points="516.5,636.1 587.1,637.7 587.1,687.7 516.5,686.1 			"/>
		</g>
		<path class="st10" d="M523.5,503.8"/>
		<g>
			<polygon class="st4" points="516.5,636.1 491.3,660.9 491.3,710.9 516.5,686.1 			"/>
		</g>
		<g>
			<polygon class="st10" points="409.8,713.7 491.3,710.9 491.3,660.9 409.8,663.7 			"/>
		</g>
		<g>
			<polygon class="st3" points="149,620.1 409.8,663.7 409.8,713.7 149,670.1 			"/>
		</g>
		<g>
			<polygon class="st10" points="79.8,519.6 149,620.1 149,670.1 79.8,569.6 			"/>
		</g>
	</g>
</g>
</svg>
